# xmcd
#
# Track frame offsets: 
#        150
#        24804
#        54036
#        78730
#        98727
#        124606
#        152216
#        174852
#        193711
#        213155
#        233689
#        248556
#
# Disc length: 3774 seconds
#
# Revision: 2
# Processed by: cddbd v1.5.2PL0 Copyright (c) Steve Scherf et al.
# Submitted via: ExactAudioCopy v0.99pb4
#
DISCID=840ebc0c
DTITLE=Köster and Hocker - Jedrisse Baby
DYEAR=2007
DGENRE=Rock
TTITLE0=Dunn Dat
TTITLE1=Et Räänt Im Aujus
TTITLE2=Zaubermund
TTITLE3=Schlau
TTITLE4=Ausdruckstanz
TTITLE5=Zappsäul Aach
TTITLE6=Vier Wäng
TTITLE7=Hingerm Firmament
TTITLE8=Bürjerwehr
TTITLE9=Drei Cool Fätze
TTITLE10=Dä Boum Vum Letzte Johr
TTITLE11=Düvel
EXTD=
EXTT0=
EXTT1=
EXTT2=
EXTT3=
EXTT4=
EXTT5=
EXTT6=
EXTT7=
EXTT8=
EXTT9=
EXTT10=
EXTT11=
PLAYORDER=
